<svg width="20" height="20" viewBox="0 0 20 20" fill="none" xmlns="http://www.w3.org/2000/svg">
<path d="M5.83333 13.5833C7.66667 13.5833 9.16667 12.0583 9.16667 10.2083C9.16667 9.24163 8.69167 8.32496 7.74167 7.54996C6.79167 6.77496 6.075 5.62496 5.83333 4.41663C5.59167 5.62496 4.88333 6.78329 3.925 7.54996C2.96667 8.31663 2.5 9.24996 2.5 10.2083C2.5 12.0583 4 13.5833 5.83333 13.5833Z" stroke="white" stroke-width="1.66667" stroke-linecap="round" stroke-linejoin="round"/>
<path d="M10.4669 5.50006C11.04 4.58433 11.4463 3.57426 11.6669 2.51672C12.0835 4.60006 13.3335 6.60006 15.0002 7.93339C16.6669 9.26672 17.5002 10.8501 17.5002 12.5167C17.505 13.6686 17.1676 14.796 16.5309 15.756C15.8941 16.7159 14.9867 17.4652 13.9236 17.9088C12.8606 18.3524 11.6897 18.4704 10.5595 18.2478C9.4293 18.0252 8.39064 17.472 7.5752 16.6584" stroke="white" stroke-width="1.66667" stroke-linecap="round" stroke-linejoin="round"/>
</svg>
